<svg width="30" height="30" viewBox="0 0 30 30" fill="none" xmlns="http://www.w3.org/2000/svg">
<path d="M25 15.3432C25 15.8179 24.6473 16.2101 24.1897 16.2722L24.0625 16.2807L7.5825 16.28L13.5362 22.2094C13.9031 22.5747 13.9044 23.1683 13.5391 23.5352C13.207 23.8688 12.6862 23.9002 12.3186 23.6286L12.2133 23.5381L4.65077 16.0081C4.6024 15.9599 4.5604 15.9078 4.52474 15.8528C4.51467 15.8362 4.50442 15.8193 4.49471 15.802C4.48577 15.7872 4.47769 15.7718 4.47007 15.7562C4.45949 15.7336 4.44914 15.7102 4.43976 15.6863C4.43213 15.6679 4.42576 15.65 4.41995 15.632C4.41304 15.6096 4.40633 15.5858 4.40056 15.5616C4.39627 15.5447 4.39287 15.5284 4.3899 15.5121C4.38573 15.4878 4.38218 15.4627 4.37965 15.4372C4.37747 15.4179 4.37615 15.3986 4.37542 15.3794C4.37524 15.3677 4.375 15.3555 4.375 15.3432L4.37547 15.3069C4.37619 15.2885 4.37745 15.2701 4.37924 15.2518L4.375 15.3432C4.375 15.2841 4.38048 15.2262 4.39096 15.1701C4.39339 15.1567 4.39629 15.1429 4.39949 15.1292C4.40615 15.101 4.41385 15.0738 4.42271 15.0472C4.42706 15.0339 4.43213 15.0198 4.43754 15.0058C4.4485 14.9775 4.46041 14.9507 4.47351 14.9245C4.47959 14.9121 4.48641 14.8993 4.49354 14.8865C4.50526 14.8657 4.51733 14.8459 4.53009 14.8266C4.53909 14.8129 4.54907 14.7987 4.55948 14.7847L4.56759 14.7739C4.59285 14.7409 4.62025 14.7097 4.64959 14.6803L4.65071 14.6795L12.2132 7.14822C12.5801 6.78286 13.1737 6.78409 13.539 7.15096C13.8712 7.48448 13.9004 8.00537 13.6273 8.37182L13.5363 8.47678L7.585 14.405L24.0625 14.4057C24.5803 14.4057 25 14.8255 25 15.3432Z" fill="black"/>
</svg>
