<svg width="19" height="19" viewBox="0 0 19 19" fill="none" xmlns="http://www.w3.org/2000/svg">
<path fill-rule="evenodd" clip-rule="evenodd" d="M7.45714 4.33685C7.81797 4.62019 8.02547 5.04269 8.02547 5.49602C8.02547 9.15019 8.1488 10.1335 8.65297 10.5077C8.9838 10.7519 9.43714 10.7494 10.9646 10.7069C11.6746 10.686 12.5838 10.6594 13.7746 10.6594C14.2496 10.6594 14.6971 10.8627 15.0005 11.2169C15.2821 11.546 15.4055 11.976 15.3405 12.3994C14.7838 16.0035 11.7171 18.621 8.0488 18.621C3.9788 18.621 0.667969 15.3102 0.667969 11.241C0.667969 8.01435 3.10797 4.78769 6.10714 4.04935C6.57547 3.93519 7.0788 4.04185 7.45714 4.33685ZM6.4863 5.25352C6.45964 5.25352 6.43297 5.25685 6.4063 5.26352C3.9313 5.87269 1.91797 8.55435 1.91797 11.241C1.91797 14.621 4.66797 17.371 8.0488 17.371C11.0963 17.371 13.643 15.2002 14.1046 12.2085C14.108 12.1835 14.1196 12.111 14.0513 12.0302C13.9863 11.9544 13.883 11.9094 13.7746 11.9094C12.5988 11.9094 11.7013 11.936 11.0005 11.956C9.3038 12.0069 8.60214 12.026 7.9088 11.5119C6.91739 10.7774 6.78704 9.54263 6.77628 6.07772L6.77547 5.49602C6.77547 5.42602 6.74547 5.36769 6.68547 5.32102C6.62964 5.27685 6.5588 5.25352 6.4863 5.25352ZM15.71 3.1121C17.175 4.57627 18.105 6.50044 18.0783 8.0146C18.0683 8.60544 17.6391 9.09877 17.0591 9.18627C15.9275 9.3571 14.6025 9.40877 13.43 9.40877C12.3383 9.40877 11.3775 9.3646 10.825 9.33294C10.13 9.2921 9.57664 8.73794 9.53664 8.04294C9.47164 6.94127 9.3308 4.1421 9.4308 1.9771C9.4583 1.34794 9.96664 0.847102 10.5883 0.836269C12.3691 0.784602 14.2066 1.61127 15.71 3.1121ZM10.695 2.08544H10.6766C10.585 4.1846 10.7208 6.89627 10.7841 7.97044C10.7875 8.0346 10.8341 8.08127 10.8975 8.0846C11.7541 8.13377 14.7058 8.27044 16.8283 7.95794C16.8333 6.78794 16.0325 5.20127 14.8266 3.99627C13.59 2.76127 12.1266 2.08544 10.695 2.08544Z" fill="black"/>
</svg>
