<svg width="474" height="301" viewBox="0 0 474 301" fill="none" xmlns="http://www.w3.org/2000/svg">
<g clip-path="url(#clip0_2984_603)">
<path d="M392.457 300.57L393.739 300.545C393.243 286.243 391.721 271.995 389.186 257.912C383.638 227.76 374.414 207.957 361.77 199.055L361.033 200.107C390.571 220.903 392.441 299.776 392.457 300.57Z" fill="#2F2E41"/>
<path d="M376.421 300.263L377.704 300.237C377.676 298.813 376.874 265.24 363.694 255.961L362.957 257.014C375.606 265.919 376.415 299.92 376.421 300.263Z" fill="#2F2E41"/>
<path d="M353.734 200.225C357.277 200.225 360.148 197.345 360.148 193.793C360.148 190.241 357.277 187.361 353.734 187.361C350.192 187.361 347.32 190.241 347.32 193.793C347.32 197.345 350.192 200.225 353.734 200.225Z" fill="#EC5237"/>
<path d="M356.912 255.537C360.455 255.537 363.326 252.658 363.326 249.105C363.326 245.553 360.455 242.674 356.912 242.674C353.37 242.674 350.498 245.553 350.498 249.105C350.498 252.658 353.37 255.537 356.912 255.537Z" fill="#EC5237"/>
<path d="M379.41 204.081C378.205 211.801 381.347 218.707 381.347 218.707C381.347 218.707 386.443 213.094 387.648 205.374C388.854 197.653 385.712 190.748 385.712 190.748C385.712 190.748 380.616 196.36 379.41 204.081Z" fill="#2F2E41"/>
<path d="M358.444 222.832C365.816 225.367 373.144 223.468 373.144 223.468C373.144 223.468 368.521 217.458 361.15 214.923C353.778 212.387 346.449 214.286 346.449 214.286C346.449 214.286 351.072 220.296 358.444 222.832Z" fill="#2F2E41"/>
<path d="M358.208 271.816C361.545 272.867 365.098 273.02 368.512 272.262C366.344 269.494 363.424 267.414 360.104 266.272C356.785 265.131 353.206 264.976 349.801 265.826C352.032 268.527 354.931 270.592 358.208 271.816Z" fill="#2F2E41"/>
<path d="M208.52 99.8173L167.167 78.2549C167.167 78.2549 153.28 62.9198 144.558 55.9932C135.837 49.0666 133.152 54.1551 133.152 54.1551L129.486 60.2821L138.346 72.6384L162.278 92.9598L205.041 109.755C205.71 110.853 206.675 111.738 207.826 112.308C208.977 112.877 210.265 113.108 211.541 112.973C212.817 112.837 214.028 112.342 215.035 111.544C216.041 110.745 216.801 109.677 217.226 108.463C217.651 107.249 217.724 105.939 217.436 104.685C217.148 103.431 216.511 102.285 215.599 101.38C214.688 100.474 213.538 99.8469 212.285 99.5703C211.032 99.2938 209.726 99.3794 208.52 99.8173Z" fill="#9F616A"/>
<path d="M100.956 81.1675L98.5081 66.1482L91.5951 64.4152C91.5951 64.4152 86.1086 62.7206 84.8262 73.8023C83.5437 84.8839 84.538 105.574 84.538 105.574L70.5022 150.142C69.3347 150.687 68.3455 151.552 67.6497 152.639C66.954 153.725 66.5804 154.988 66.5724 156.279C66.5644 157.57 66.9224 158.837 67.6046 159.932C68.2868 161.027 69.2653 161.905 70.426 162.464C71.5867 163.023 72.8818 163.24 74.1607 163.089C75.4396 162.939 76.6495 162.427 77.6496 161.614C78.6496 160.801 79.3987 159.719 79.8095 158.496C80.2204 157.272 80.2761 155.956 79.9702 154.702L98.3642 112.506L100.956 81.1675Z" fill="#9F616A"/>
<path d="M158.137 291.941L167.182 291.941L171.486 256.953L158.135 256.954L158.137 291.941Z" fill="#9F616A"/>
<path d="M155.828 288.979L173.643 288.979H173.644C176.655 288.979 179.543 290.178 181.672 292.313C183.801 294.448 184.997 297.343 184.997 300.363V300.733L155.829 300.734L155.828 288.979Z" fill="#2F2E41"/>
<path d="M59.4681 291.941L68.5145 291.941L72.8177 256.953L59.4668 256.954L59.4681 291.941Z" fill="#9F616A"/>
<path d="M57.1621 288.979L74.9773 288.979H74.978C77.989 288.979 80.8766 290.178 83.0057 292.313C85.1348 294.448 86.331 297.343 86.3312 300.363V300.733L57.1626 300.734L57.1621 288.979Z" fill="#2F2E41"/>
<path d="M104.128 51.1665L89.1235 64.01L101.437 103.084L104.216 111.809C104.216 111.809 87.2503 127.494 76.7532 171.309C66.2561 215.125 49.084 273.345 49.084 273.345L85.3313 283.749L114.821 184.634L149.508 262.393L153.512 285.392L184.38 276.266L177.099 218.585L140.692 118.74L144.474 92.2729C144.474 92.2729 150.153 79.0622 140.287 65.0756L137.193 51.9333L126.107 49.1953L104.128 51.1665Z" fill="#2F2E41"/>
<path d="M129.055 44.1838H88.4892C87.6547 44.1828 86.8547 43.85 86.2647 43.2584C85.6746 42.6667 85.3427 41.8645 85.3418 41.0278V23.4945C85.3418 17.2634 87.8104 11.2875 92.2044 6.88139C96.5985 2.47531 102.558 0 108.772 0C114.986 0 120.946 2.47531 125.34 6.88139C129.734 11.2875 132.203 17.2634 132.203 23.4945V41.0278C132.202 41.8645 131.87 42.6667 131.28 43.2584C130.69 43.85 129.89 44.1828 129.055 44.1838Z" fill="#2F2E41"/>
<path d="M128.66 34.8125C133.21 26.465 130.151 15.9989 121.826 11.4357C113.502 6.87256 103.064 9.94036 98.5132 18.2879C93.9625 26.6354 97.022 37.1015 105.347 41.6647C113.671 46.2278 124.109 43.16 128.66 34.8125Z" fill="#9F616A"/>
<path d="M137.746 25.2484H112.941L112.686 21.6774L111.414 25.2484H107.595L107.091 18.1707L104.57 25.2484H97.1797V24.8977C97.1852 19.9703 99.1397 15.2464 102.614 11.7621C106.089 8.27794 110.8 6.31807 115.714 6.3125H119.211C124.125 6.31806 128.836 8.27792 132.311 11.7621C135.786 15.2463 137.74 19.9703 137.746 24.8977V25.2484Z" fill="#2F2E41"/>
<path d="M112.736 47.4576C112.549 47.4574 112.363 47.4409 112.179 47.4083L94.0156 44.1948V14.0938H114.01L113.515 14.6725C106.628 22.7268 111.817 35.787 115.522 42.8551C115.796 43.3728 115.917 43.9573 115.874 44.5413C115.83 45.1253 115.623 45.6852 115.276 46.1563C114.986 46.5592 114.604 46.8872 114.162 47.1134C113.721 47.3396 113.232 47.4576 112.736 47.4576Z" fill="#2F2E41"/>
<path d="M262.948 205.262L103.762 261.698C99.8266 263.088 95.5015 262.856 91.736 261.053C87.9704 259.249 85.072 256.022 83.6766 252.079L56.3308 174.523C54.9443 170.576 55.1756 166.239 56.9739 162.463C58.7723 158.688 61.9909 155.781 65.9236 154.382L225.109 97.9466C229.045 96.5562 233.37 96.7881 237.135 98.5914C240.901 100.395 243.799 103.622 245.195 107.566L272.54 185.121C273.927 189.068 273.696 193.405 271.897 197.181C270.099 200.957 266.88 203.863 262.948 205.262Z" fill="white"/>
<path d="M272.541 185.121L272.686 185.531C274.014 189.3 273.794 193.444 272.076 197.051C270.357 200.658 267.28 203.433 263.521 204.764L103.54 261.482C99.7824 262.814 95.6508 262.594 92.0541 260.872C88.4575 259.15 85.6904 256.065 84.3615 252.297L84.2168 251.887L272.541 185.121Z" fill="#F2F2F2"/>
<path d="M93.8278 172.39C83.2762 179.352 69.753 174.112 65.0234 166.481L65.7775 166.051C74.7604 160.436 88.1007 163.565 93.8278 172.39Z" fill="#EC5237"/>
<path d="M226.054 192.142C223.471 193.057 221.146 193.015 219.142 192.017C214.612 189.76 212.486 183.068 210.778 177.69C210.281 176.126 209.811 174.648 209.333 173.44L209.327 173.422C208.495 171.026 208.64 168.398 209.73 166.108C210.819 163.819 212.766 162.053 215.147 161.194L236.558 153.603C239.138 152.689 241.46 152.731 243.463 153.727C247.992 155.982 250.12 162.671 251.829 168.047C252.328 169.614 252.798 171.095 253.278 172.305C254.114 174.703 253.972 177.335 252.883 179.629C251.793 181.923 249.845 183.692 247.461 184.552L226.054 192.142ZM210.224 173.097C210.713 174.333 211.186 175.823 211.687 177.4C213.34 182.605 215.398 189.083 219.566 191.16C221.355 192.051 223.373 192.077 225.736 191.24L247.141 183.651C249.285 182.878 251.039 181.288 252.021 179.226C253.002 177.164 253.133 174.797 252.385 172.639C251.9 171.417 251.424 169.921 250.92 168.337C249.265 163.134 247.206 156.658 243.039 154.584C241.252 153.694 239.236 153.669 236.876 154.505L215.466 162.096C213.324 162.869 211.573 164.457 210.591 166.516C209.61 168.576 209.478 170.94 210.224 173.097Z" fill="#3F3D56"/>
<path d="M89.3904 174.895C85.6279 176.203 81.5748 176.427 77.6919 175.54C72.0215 174.291 66.8753 170.897 64.2619 166.681L64 166.258L65.1769 165.587C74.2949 159.892 87.9678 162.98 93.8696 172.072L94.1283 172.471L93.7321 172.732C92.3776 173.627 90.9196 174.353 89.3904 174.895ZM65.3418 166.594C67.8994 170.404 72.6586 173.452 77.8966 174.606C82.9882 175.798 88.3433 174.932 92.8024 172.194C87.0294 163.82 74.2391 161.043 65.6735 166.404L65.3418 166.594Z" fill="#3F3D56"/>
<path d="M94.983 230.56C93.6463 231.091 92.1907 231.246 90.7725 231.01C89.3542 230.774 88.0269 230.155 86.9329 229.22C85.6524 228.098 84.6817 226.664 84.1143 225.056C83.5469 223.448 83.4019 221.721 83.6934 220.041C83.9642 218.596 84.6287 217.253 85.6135 216.163C86.5983 215.073 87.8649 214.278 89.2729 213.865L117.802 203.751C119.156 203.188 120.639 203.011 122.086 203.24C123.534 203.468 124.891 204.093 126.007 205.045C127.287 206.168 128.257 207.602 128.823 209.21C129.39 210.817 129.534 212.544 129.242 214.224C128.679 217.176 126.691 219.351 123.662 220.392L95.1322 230.506C95.0824 230.524 95.0327 230.542 94.983 230.56ZM89.4503 214.815C88.233 215.192 87.1411 215.895 86.2919 216.847C85.4427 217.799 84.8683 218.966 84.6304 220.221C84.3679 221.734 84.4984 223.29 85.0096 224.738C85.5208 226.187 86.3954 227.478 87.549 228.489C88.538 229.33 89.7396 229.879 91.0208 230.076C92.302 230.273 93.6127 230.111 94.8074 229.607L123.351 219.487C124.597 219.127 125.72 218.428 126.594 217.467C127.469 216.506 128.061 215.321 128.306 214.044C128.569 212.531 128.439 210.975 127.928 209.527C127.418 208.078 126.544 206.786 125.391 205.775C124.4 204.936 123.198 204.386 121.916 204.188C120.635 203.99 119.323 204.149 118.126 204.65L89.5814 214.77C89.5376 214.785 89.4936 214.8 89.4503 214.815Z" fill="#3F3D56"/>
<path d="M226.246 169.324L217.252 172.512C216.656 172.723 216 172.689 215.429 172.415C214.859 172.142 214.419 171.653 214.209 171.055C213.998 170.457 214.033 169.799 214.305 169.227C214.578 168.655 215.066 168.214 215.662 168.003L224.656 164.815C225.252 164.603 225.908 164.638 226.478 164.911C227.049 165.185 227.488 165.674 227.699 166.272C227.91 166.87 227.875 167.527 227.603 168.1C227.33 168.672 226.842 169.112 226.246 169.324Z" fill="#EC5237"/>
<path d="M228.788 176.536L219.795 179.725C219.199 179.936 218.543 179.902 217.972 179.628C217.402 179.355 216.962 178.865 216.752 178.267C216.541 177.67 216.575 177.012 216.848 176.44C217.121 175.868 217.609 175.427 218.205 175.216L227.199 172.027C227.795 171.816 228.451 171.851 229.021 172.124C229.592 172.397 230.031 172.887 230.242 173.485C230.453 174.083 230.418 174.74 230.145 175.312C229.873 175.885 229.385 176.325 228.788 176.536Z" fill="#EC5237"/>
<path d="M231.333 183.751L222.34 186.94C222.045 187.044 221.732 187.09 221.419 187.073C221.106 187.057 220.8 186.978 220.517 186.843C220.235 186.708 219.981 186.518 219.772 186.284C219.562 186.051 219.401 185.778 219.297 185.482C219.192 185.186 219.147 184.872 219.163 184.559C219.18 184.245 219.258 183.938 219.393 183.655C219.528 183.371 219.717 183.117 219.95 182.907C220.183 182.697 220.455 182.535 220.75 182.431L229.743 179.242C230.039 179.138 230.352 179.092 230.664 179.109C230.977 179.125 231.284 179.204 231.566 179.339C231.849 179.474 232.102 179.664 232.311 179.898C232.521 180.131 232.682 180.404 232.787 180.7C232.891 180.996 232.936 181.309 232.92 181.623C232.903 181.937 232.825 182.244 232.69 182.527C232.555 182.811 232.366 183.065 232.133 183.275C231.9 183.485 231.629 183.647 231.333 183.751Z" fill="#EC5237"/>
<path d="M241.984 163.743L232.99 166.932C232.695 167.037 232.382 167.082 232.069 167.065C231.757 167.049 231.45 166.971 231.168 166.835C230.885 166.7 230.632 166.51 230.422 166.277C230.213 166.043 230.051 165.771 229.947 165.475C229.843 165.178 229.797 164.865 229.814 164.551C229.83 164.237 229.908 163.93 230.043 163.647C230.178 163.363 230.368 163.11 230.6 162.9C230.833 162.69 231.105 162.528 231.4 162.423L240.394 159.234C240.99 159.023 241.646 159.058 242.217 159.331C242.787 159.604 243.226 160.094 243.437 160.692C243.648 161.29 243.613 161.947 243.341 162.52C243.068 163.092 242.58 163.532 241.984 163.743Z" fill="#EC5237"/>
<path d="M244.529 170.958L235.535 174.147C235.24 174.251 234.927 174.297 234.614 174.28C234.302 174.264 233.995 174.185 233.713 174.05C233.43 173.915 233.177 173.725 232.967 173.491C232.758 173.258 232.596 172.985 232.492 172.689C232.387 172.393 232.342 172.079 232.359 171.766C232.375 171.452 232.453 171.145 232.588 170.862C232.723 170.578 232.913 170.324 233.145 170.114C233.378 169.904 233.65 169.742 233.945 169.638L242.939 166.449C243.234 166.345 243.547 166.299 243.86 166.316C244.172 166.332 244.479 166.411 244.761 166.546C245.044 166.681 245.297 166.871 245.507 167.105C245.716 167.338 245.878 167.611 245.982 167.907C246.087 168.203 246.132 168.517 246.115 168.83C246.099 169.144 246.021 169.451 245.886 169.734C245.751 170.018 245.561 170.272 245.329 170.482C245.096 170.692 244.824 170.854 244.529 170.958Z" fill="#EC5237"/>
<path d="M247.072 178.171L238.078 181.36C237.482 181.571 236.826 181.536 236.255 181.263C235.685 180.99 235.246 180.5 235.035 179.902C234.824 179.304 234.859 178.647 235.131 178.075C235.404 177.502 235.892 177.062 236.488 176.851L245.482 173.662C245.777 173.557 246.09 173.512 246.403 173.529C246.715 173.545 247.022 173.624 247.304 173.759C247.587 173.894 247.84 174.084 248.05 174.317C248.259 174.551 248.421 174.824 248.525 175.12C248.629 175.416 248.675 175.729 248.658 176.043C248.642 176.357 248.564 176.664 248.429 176.947C248.294 177.231 248.104 177.485 247.872 177.695C247.639 177.905 247.367 178.067 247.072 178.171Z" fill="#EC5237"/>
<path d="M251.149 124.449L62.8242 191.215L63.1422 192.117L251.467 125.35L251.149 124.449Z" fill="#3F3D56"/>
<path d="M262.948 205.262L103.762 261.698C99.8266 263.088 95.5015 262.856 91.736 261.053C87.9704 259.249 85.072 256.022 83.6766 252.079L56.3308 174.523C54.9443 170.576 55.1756 166.239 56.9739 162.463C58.7723 158.688 61.9909 155.781 65.9236 154.382L225.109 97.9466C229.045 96.5562 233.37 96.7881 237.135 98.5914C240.901 100.395 243.799 103.622 245.195 107.566L272.54 185.121C273.927 189.068 273.696 193.405 271.897 197.181C270.099 200.957 266.88 203.863 262.948 205.262ZM66.2415 155.284C62.5472 156.598 59.5237 159.328 57.8343 162.875C56.145 166.422 55.9277 170.497 57.2302 174.204L84.5759 251.76C85.8868 255.464 88.6096 258.496 92.1469 260.19C95.6842 261.884 99.7472 262.102 103.444 260.796L262.63 204.36C266.324 203.046 269.347 200.316 271.037 196.769C272.726 193.222 272.943 189.148 271.641 185.44L244.295 107.884C242.984 104.18 240.262 101.148 236.724 99.4542C233.187 97.7602 229.124 97.5423 225.427 98.8484L66.2415 155.284Z" fill="#3F3D56"/>
<path d="M473.359 300.999H0.641407C0.471296 300.999 0.308151 300.931 0.187863 300.811C0.0675762 300.69 0 300.527 0 300.356C0 300.185 0.0675762 300.022 0.187863 299.901C0.308151 299.781 0.471296 299.713 0.641407 299.713H473.359C473.529 299.713 473.692 299.781 473.812 299.901C473.932 300.022 474 300.185 474 300.356C474 300.527 473.932 300.69 473.812 300.811C473.692 300.931 473.529 300.999 473.359 300.999Z" fill="#CBCBCB"/>
</g>
<defs>
<clipPath id="clip0_2984_603">
<rect width="474" height="301" fill="white"/>
</clipPath>
</defs>
</svg>
