<svg width="87" height="87" viewBox="0 0 87 87" fill="none" xmlns="http://www.w3.org/2000/svg">
<g filter="url(#filter0_d_3046_540)">
<circle cx="43.5" cy="39.5" r="23.5" fill="#EC5237"/>
</g>
<path fill-rule="evenodd" clip-rule="evenodd" d="M43.791 30.834C46.1852 30.834 48.4352 31.7648 50.1252 33.4557C53.6185 36.949 53.6185 42.6323 50.1252 46.1257C48.4127 47.839 46.1068 48.7457 43.771 48.7457C42.4977 48.7457 41.216 48.4765 40.0168 47.9215C39.6635 47.7798 39.3327 47.6465 39.0952 47.6465C38.8218 47.6482 38.4543 47.7748 38.0993 47.8973C37.371 48.1473 36.4643 48.459 35.7935 47.7907C35.1252 47.1215 35.4335 46.2173 35.6818 45.4898C35.8043 45.1315 35.9302 44.7615 35.9302 44.4815C35.9302 44.2515 35.8193 43.9582 35.6493 43.5357C34.0885 40.1648 34.8102 36.1023 37.4577 33.4565C39.1477 31.7657 41.3968 30.834 43.791 30.834ZM43.7918 32.084C41.731 32.084 39.7952 32.8857 38.341 34.3407C36.0627 36.6173 35.4427 40.1132 36.7968 43.0407C36.9918 43.5232 37.1802 43.9932 37.1802 44.4815C37.1802 44.969 37.0127 45.4598 36.8652 45.8932C36.7435 46.2498 36.5593 46.7882 36.6777 46.9065C36.7935 47.0265 37.3352 46.8373 37.6927 46.7148C38.1218 46.5682 38.6085 46.3998 39.091 46.3965C39.5743 46.3965 40.0302 46.5798 40.5127 46.774C43.4685 48.1407 46.9643 47.519 49.2418 45.2423C52.2468 42.2357 52.2468 37.3448 49.2418 34.3398C47.7868 32.8848 45.8518 32.084 43.7918 32.084ZM47.0809 39.3029C47.5409 39.3029 47.9143 39.6754 47.9143 40.1362C47.9143 40.5971 47.5409 40.9696 47.0809 40.9696C46.6209 40.9696 46.2443 40.5971 46.2443 40.1362C46.2443 39.6754 46.6134 39.3029 47.0734 39.3029H47.0809ZM43.7403 39.3029C44.2003 39.3029 44.5736 39.6754 44.5736 40.1362C44.5736 40.5971 44.2003 40.9696 43.7403 40.9696C43.2803 40.9696 42.9036 40.5971 42.9036 40.1362C42.9036 39.6754 43.2719 39.3029 43.7328 39.3029H43.7403ZM40.3993 39.3029C40.8593 39.3029 41.2326 39.6754 41.2326 40.1362C41.2326 40.5971 40.8593 40.9696 40.3993 40.9696C39.9393 40.9696 39.5626 40.5971 39.5626 40.1362C39.5626 39.6754 39.9318 39.3029 40.3918 39.3029H40.3993Z" fill="#E7E7E7"/>
<defs>
<filter id="filter0_d_3046_540" x="0" y="0" width="87" height="87" filterUnits="userSpaceOnUse" color-interpolation-filters="sRGB">
<feFlood flood-opacity="0" result="BackgroundImageFix"/>
<feColorMatrix in="SourceAlpha" type="matrix" values="0 0 0 0 0 0 0 0 0 0 0 0 0 0 0 0 0 0 127 0" result="hardAlpha"/>
<feOffset dy="4"/>
<feGaussianBlur stdDeviation="10"/>
<feComposite in2="hardAlpha" operator="out"/>
<feColorMatrix type="matrix" values="0 0 0 0 0 0 0 0 0 0 0 0 0 0 0 0 0 0 0.2 0"/>
<feBlend mode="normal" in2="BackgroundImageFix" result="effect1_dropShadow_3046_540"/>
<feBlend mode="normal" in="SourceGraphic" in2="effect1_dropShadow_3046_540" result="shape"/>
</filter>
</defs>
</svg>
