<svg width="18" height="18" viewBox="0 0 18 18" fill="none" xmlns="http://www.w3.org/2000/svg">
<g clip-path="url(#clip0_2764_935)">
<path d="M9 0C4.0383 0 0 4.03785 0 9C0 13.9621 4.0383 18 9 18C13.963 18 18 13.9621 18 9C18 4.03785 13.963 0 9 0ZM12.9681 8.04375L9.1152 11.8975C8.847 12.1653 8.49555 12.2994 8.1441 12.2994C7.79355 12.2994 7.44165 12.1653 7.1739 11.8975L5.0328 9.75645C4.49685 9.2205 4.49685 8.35065 5.0328 7.8156C5.56875 7.2792 6.43725 7.2792 6.9741 7.8156L8.1441 8.9856L11.0277 6.10245C11.5623 5.5674 12.4331 5.5674 12.9681 6.10245C13.5045 6.6384 13.5045 7.5078 12.9681 8.04375Z" fill="#00A01A"/>
</g>
<defs>
<clipPath id="clip0_2764_935">
<rect width="18" height="18" fill="white"/>
</clipPath>
</defs>
</svg>
