<svg width="20" height="20" viewBox="0 0 20 20" fill="none" xmlns="http://www.w3.org/2000/svg">
<path fill-rule="evenodd" clip-rule="evenodd" d="M9.90615 12.0123L10.0002 12.0123L10.2107 12.0131C11.8196 12.0237 15.4962 12.1862 15.4962 14.6782C15.4962 17.1538 11.9477 17.3152 10.2358 17.3258L9.60156 17.3257C7.99264 17.3152 4.31532 17.1528 4.31532 14.664C4.31532 12.1853 7.99264 12.0236 9.60156 12.0131L9.81205 12.0123C9.84471 12.0123 9.8761 12.0123 9.90615 12.0123ZM9.90615 13.2623C7.92615 13.2623 5.56532 13.5057 5.56532 14.664C5.56532 15.7961 7.78524 16.0608 9.72518 16.0758L9.90615 16.0765C11.8862 16.0765 14.2462 15.834 14.2462 14.6782C14.2462 13.5082 11.8862 13.2623 9.90615 13.2623ZM16.5342 11.6742C18.5533 11.9767 18.9775 12.925 18.9775 13.6675C18.9775 14.1208 18.7992 14.9483 17.6075 15.4025C17.5342 15.43 17.4592 15.4433 17.385 15.4433C17.1333 15.4433 16.8958 15.29 16.8008 15.0408C16.6775 14.7183 16.84 14.3567 17.1625 14.2342C17.7275 14.0192 17.7275 13.7817 17.7275 13.6675C17.7275 13.3025 17.2633 13.0475 16.3483 12.9108C16.0075 12.8592 15.7717 12.5417 15.8225 12.1992C15.8733 11.8575 16.19 11.63 16.5342 11.6742ZM3.98898 12.1992C4.03982 12.5417 3.80398 12.8592 3.46315 12.9108C2.54815 13.0475 2.08398 13.3025 2.08398 13.6675C2.08398 13.7817 2.08398 14.0183 2.64982 14.2342C2.97232 14.3567 3.13482 14.7183 3.01148 15.0408C2.91648 15.29 2.67898 15.4433 2.42732 15.4433C2.35315 15.4433 2.27815 15.43 2.20482 15.4025C1.01232 14.9475 0.833984 14.12 0.833984 13.6675C0.833984 12.9258 1.25815 11.9767 3.27815 11.6742C3.62232 11.6308 3.93732 11.8575 3.98898 12.1992ZM9.90615 3.33398C12.0062 3.33398 13.7137 5.04232 13.7137 7.14148C13.7137 9.24065 12.0062 10.949 9.90615 10.949H9.88365C8.86698 10.9457 7.91448 10.5473 7.20115 9.82732C6.48615 9.10815 6.09532 8.15315 6.09945 7.13898C6.09945 5.04232 7.80698 3.33398 9.90615 3.33398ZM9.90615 4.58398C8.49615 4.58398 7.34947 5.73148 7.34947 7.14148C7.34698 7.82482 7.60865 8.46398 8.08782 8.94648C8.56698 9.42898 9.20532 9.69648 9.88532 9.69898L9.90615 10.324V9.69898C11.3162 9.69898 12.4637 8.55232 12.4637 7.14148C12.4637 5.73148 11.3162 4.58398 9.90615 4.58398ZM15.0637 4.15023C16.5287 4.39107 17.5928 5.6444 17.5928 7.13023C17.5895 8.62607 16.472 9.9094 14.9928 10.1169C14.9637 10.1211 14.9345 10.1227 14.9062 10.1227C14.5995 10.1227 14.332 9.8969 14.2878 9.5844C14.2403 9.2419 14.4778 8.92607 14.8203 8.87857C15.687 8.7569 16.3412 8.00523 16.3428 7.12857C16.3428 6.2594 15.7195 5.5244 14.8603 5.38357C14.5203 5.32773 14.2895 5.00607 14.3453 4.66523C14.402 4.3244 14.7212 4.09607 15.0637 4.15023ZM5.46698 4.66523C5.52282 5.00607 5.29198 5.32773 4.95198 5.38357C4.09282 5.5244 3.46948 6.2594 3.46948 7.13023C3.47115 8.00523 4.12532 8.75773 4.99115 8.87857C5.33365 8.92607 5.57115 9.2419 5.52365 9.5844C5.47948 9.8969 5.21198 10.1227 4.90532 10.1227C4.87698 10.1227 4.84782 10.1211 4.81865 10.1169C3.33948 9.9094 2.22282 8.62607 2.21948 7.1319C2.21948 5.6444 3.28365 4.39107 4.74865 4.15023C5.09948 4.09523 5.41032 4.32607 5.46698 4.66523Z" fill="black"/>
</svg>
