<svg width="25" height="20" viewBox="0 0 25 20" fill="none" xmlns="http://www.w3.org/2000/svg">
<path fill-rule="evenodd" clip-rule="evenodd" d="M12.3724 12.2157L12.4995 12.2158L12.7836 12.2167C14.9555 12.2311 19.9189 12.4505 19.9189 15.8146C19.9189 19.1567 15.1285 19.3747 12.8175 19.3889L11.9612 19.3889C9.78918 19.3746 4.8248 19.1555 4.8248 15.7955C4.8248 12.4492 9.78918 12.231 11.9612 12.2167L12.2454 12.2158C12.2895 12.2157 12.3319 12.2157 12.3724 12.2157ZM12.3724 13.9032C9.69942 13.9032 6.5123 14.2317 6.5123 15.7955C6.5123 17.3239 9.50919 17.6812 12.1281 17.7014L12.3724 17.7024C15.0454 17.7024 18.2314 17.375 18.2314 15.8146C18.2314 14.2351 15.0454 13.9032 12.3724 13.9032ZM21.3202 11.7592C24.0461 12.1676 24.6187 13.4478 24.6187 14.4502C24.6187 15.0622 24.378 16.1793 22.7692 16.7925C22.6702 16.8296 22.569 16.8476 22.4689 16.8476C22.1291 16.8476 21.8085 16.6406 21.6802 16.3042C21.5137 15.8688 21.7331 15.3806 22.1685 15.2152C22.9312 14.925 22.9312 14.6043 22.9312 14.4502C22.9312 13.9575 22.3046 13.6132 21.0694 13.4287C20.6092 13.359 20.2908 12.9303 20.3595 12.468C20.4281 12.0067 20.8556 11.6996 21.3202 11.7592ZM4.38425 12.468C4.45288 12.9303 4.1345 13.359 3.67438 13.4287C2.43913 13.6132 1.8125 13.9575 1.8125 14.4502C1.8125 14.6043 1.8125 14.9238 2.57638 15.2152C3.01175 15.3806 3.23113 15.8688 3.06463 16.3042C2.93638 16.6406 2.61575 16.8476 2.276 16.8476C2.17587 16.8476 2.07463 16.8296 1.97563 16.7925C0.36575 16.1782 0.125 15.0611 0.125 14.4502C0.125 13.449 0.697625 12.1676 3.42463 11.7592C3.88925 11.7007 4.3145 12.0067 4.38425 12.468ZM12.3724 0.5C15.2074 0.5 17.5126 2.80625 17.5126 5.64012C17.5126 8.474 15.2074 10.7802 12.3724 10.7802H12.3421C10.9696 10.7757 9.68367 10.238 8.72067 9.266C7.75542 8.29512 7.2278 7.00587 7.23338 5.63675C7.23338 2.80625 9.53855 0.5 12.3724 0.5ZM12.3724 2.1875C10.4689 2.1875 8.9209 3.73662 8.9209 5.64012C8.91755 6.56262 9.2708 7.4255 9.91768 8.07687C10.5646 8.72825 11.4263 9.08937 12.3443 9.09275L12.3724 9.9365V9.09275C14.2759 9.09275 15.825 7.54475 15.825 5.64012C15.825 3.73662 14.2759 2.1875 12.3724 2.1875ZM19.3351 1.60194C21.3128 1.92706 22.7494 3.61906 22.7494 5.62494C22.7449 7.64431 21.2363 9.37681 19.2394 9.65694C19.2001 9.66256 19.1607 9.66481 19.1224 9.66481C18.7084 9.66481 18.3473 9.35994 18.2877 8.93806C18.2236 8.47569 18.5442 8.04931 19.0066 7.98519C20.1766 7.82094 21.0597 6.80619 21.0619 5.62269C21.0619 4.44931 20.2204 3.45706 19.0606 3.26694C18.6016 3.19156 18.2899 2.75731 18.3653 2.29719C18.4418 1.83706 18.8727 1.52881 19.3351 1.60194ZM6.37955 2.29719C6.45493 2.75731 6.1433 3.19156 5.6843 3.26694C4.52443 3.45706 3.68292 4.44931 3.68292 5.62494C3.68517 6.80619 4.5683 7.82206 5.73717 7.98519C6.19955 8.04931 6.52017 8.47569 6.45605 8.93806C6.39642 9.35994 6.0353 9.66481 5.6213 9.66481C5.58305 9.66481 5.54367 9.66256 5.5043 9.65694C3.50743 9.37681 1.99993 7.64431 1.99542 5.62719C1.99542 3.61906 3.43205 1.92706 5.4098 1.60194C5.88342 1.52769 6.30305 1.83931 6.37955 2.29719Z" fill="#FF7057"/>
</svg>
