<svg width="40" height="40" viewBox="0 0 40 40" fill="none" xmlns="http://www.w3.org/2000/svg">
<circle cx="20" cy="20" r="19.5" fill="white" stroke="#EC5237"/>
<path d="M14.976 25.184C14.9653 25.4187 14.8747 25.616 14.704 25.776C14.544 25.9253 14.352 26 14.128 26C13.8827 26 13.68 25.9253 13.52 25.776C13.3707 25.616 13.296 25.4187 13.296 25.184V15.616C13.296 15.3813 13.376 15.1893 13.536 15.04C13.696 14.88 13.904 14.8 14.16 14.8C14.3733 14.8 14.56 14.88 14.72 15.04C14.8907 15.1893 14.976 15.3813 14.976 15.616V25.184ZM22.2816 14.8C23.0603 14.8 23.7483 14.9493 24.3456 15.248C24.943 15.536 25.439 15.9413 25.8336 16.464C26.239 16.976 26.543 17.5733 26.7456 18.256C26.9483 18.928 27.0496 19.6427 27.0496 20.4C27.0496 21.4347 26.8683 22.3787 26.5056 23.232C26.143 24.0747 25.6096 24.7467 24.9056 25.248C24.2016 25.7493 23.327 26 22.2816 26H18.3776C18.1536 26 17.9616 25.9253 17.8016 25.776C17.6416 25.616 17.5616 25.4187 17.5616 25.184V15.616C17.5616 15.3813 17.6416 15.1893 17.8016 15.04C17.9616 14.88 18.1536 14.8 18.3776 14.8H22.2816ZM22.1216 24.464C22.879 24.464 23.4923 24.2773 23.9616 23.904C24.431 23.5307 24.7723 23.04 24.9856 22.432C25.2096 21.8133 25.3216 21.136 25.3216 20.4C25.3216 19.856 25.2576 19.344 25.1296 18.864C25.0123 18.3733 24.8203 17.9413 24.5536 17.568C24.2976 17.184 23.967 16.8853 23.5616 16.672C23.167 16.448 22.687 16.336 22.1216 16.336H19.0976L19.2416 16.192V24.624L19.1456 24.464H22.1216Z" fill="black"/>
</svg>
