<svg width="40" height="40" viewBox="0 0 40 40" fill="none" xmlns="http://www.w3.org/2000/svg">
<circle cx="20" cy="20" r="19.5" fill="white" stroke="#EC5237"/>
<path d="M13.144 26C12.888 26 12.68 25.9253 12.52 25.776C12.3707 25.616 12.296 25.4187 12.296 25.184V15.616C12.296 15.3813 12.376 15.1893 12.536 15.04C12.696 14.88 12.888 14.8 13.112 14.8H18.52C18.7547 14.8 18.9467 14.8747 19.096 15.024C19.256 15.1733 19.336 15.36 19.336 15.584C19.336 15.7867 19.256 15.9627 19.096 16.112C18.9467 16.2613 18.7547 16.336 18.52 16.336H13.848L13.96 16.176V19.744L13.864 19.552H17.8C18.0347 19.552 18.2267 19.6267 18.376 19.776C18.536 19.9253 18.616 20.112 18.616 20.336C18.616 20.5387 18.536 20.7147 18.376 20.864C18.2267 21.0133 18.0347 21.088 17.8 21.088H13.832L13.96 20.96V25.184C13.96 25.4187 13.88 25.616 13.72 25.776C13.56 25.9253 13.368 26 13.144 26ZM26.0316 14.8C26.8103 14.8 27.4983 14.9493 28.0956 15.248C28.693 15.536 29.189 15.9413 29.5836 16.464C29.989 16.976 30.293 17.5733 30.4956 18.256C30.6983 18.928 30.7996 19.6427 30.7996 20.4C30.7996 21.4347 30.6183 22.3787 30.2556 23.232C29.893 24.0747 29.3596 24.7467 28.6556 25.248C27.9516 25.7493 27.077 26 26.0316 26H22.1276C21.9036 26 21.7116 25.9253 21.5516 25.776C21.3916 25.616 21.3116 25.4187 21.3116 25.184V15.616C21.3116 15.3813 21.3916 15.1893 21.5516 15.04C21.7116 14.88 21.9036 14.8 22.1276 14.8H26.0316ZM25.8716 24.464C26.629 24.464 27.2423 24.2773 27.7116 23.904C28.181 23.5307 28.5223 23.04 28.7356 22.432C28.9596 21.8133 29.0716 21.136 29.0716 20.4C29.0716 19.856 29.0076 19.344 28.8796 18.864C28.7623 18.3733 28.5703 17.9413 28.3036 17.568C28.0476 17.184 27.717 16.8853 27.3116 16.672C26.917 16.448 26.437 16.336 25.8716 16.336H22.8476L22.9916 16.192V24.624L22.8956 24.464H25.8716Z" fill="black"/>
</svg>
