<svg width="40" height="40" viewBox="0 0 40 40" fill="none" xmlns="http://www.w3.org/2000/svg">
<circle cx="20" cy="20" r="19.5" fill="white" stroke="#EC5237"/>
<path d="M17.488 24.432C17.712 24.432 17.8987 24.5067 18.048 24.656C18.208 24.8053 18.288 24.992 18.288 25.216C18.288 25.44 18.208 25.6267 18.048 25.776C17.8987 25.9253 17.712 26 17.488 26H12.112C11.8773 26 11.68 25.9253 11.52 25.776C11.3707 25.616 11.296 25.4187 11.296 25.184V15.616C11.296 15.3813 11.376 15.1893 11.536 15.04C11.696 14.88 11.904 14.8 12.16 14.8C12.3733 14.8 12.56 14.88 12.72 15.04C12.8907 15.1893 12.976 15.3813 12.976 15.616V24.704L12.64 24.432H17.488ZM24.1241 16.88L20.5241 25.52C20.4601 25.6907 20.3641 25.824 20.2361 25.92C20.1081 26.016 19.9641 26.064 19.8041 26.064C19.5695 26.064 19.3935 26 19.2761 25.872C19.1588 25.7333 19.0948 25.5627 19.0841 25.36C19.0841 25.2853 19.1001 25.2 19.1321 25.104L23.1961 15.28C23.2708 15.0987 23.3775 14.96 23.5161 14.864C23.6655 14.768 23.8255 14.7253 23.9961 14.736C24.1561 14.736 24.3055 14.784 24.4441 14.88C24.5828 14.976 24.6841 15.1093 24.7481 15.28L28.7641 24.96C28.8068 25.0667 28.8281 25.1733 28.8281 25.28C28.8281 25.5147 28.7481 25.7067 28.5881 25.856C28.4388 25.9947 28.2681 26.064 28.0761 26.064C27.9161 26.064 27.7668 26.016 27.6281 25.92C27.5001 25.8133 27.4041 25.68 27.3401 25.52L23.7081 16.928L24.1241 16.88ZM21.1641 23.248L21.8841 21.712H26.4121L26.6841 23.248H21.1641Z" fill="black"/>
</svg>
