<svg width="40" height="40" viewBox="0 0 40 40" fill="none" xmlns="http://www.w3.org/2000/svg">
<circle cx="20" cy="20" r="19.5" fill="white" stroke="#EC5237"/>
<path d="M11.16 14.8C11.3733 14.8 11.56 14.88 11.72 15.04C11.8907 15.1893 11.976 15.3813 11.976 15.616V25.184C11.9653 25.4187 11.8747 25.616 11.704 25.776C11.544 25.9253 11.352 26 11.128 26C10.8827 26 10.68 25.9253 10.52 25.776C10.3707 25.616 10.296 25.4187 10.296 25.184V15.616C10.296 15.3813 10.376 15.1893 10.536 15.04C10.696 14.88 10.904 14.8 11.16 14.8ZM18.376 14.8C18.632 14.8 18.8347 14.88 18.984 15.04C19.1333 15.1893 19.208 15.3813 19.208 15.616V25.184C19.208 25.4187 19.128 25.616 18.968 25.776C18.8187 25.9253 18.616 26 18.36 26C18.136 26 17.944 25.9253 17.784 25.776C17.624 25.616 17.544 25.4187 17.544 25.184V15.616C17.544 15.3813 17.624 15.1893 17.784 15.04C17.9547 14.88 18.152 14.8 18.376 14.8ZM11.096 19.568H18.392L18.376 21.104H11.08L11.096 19.568ZM26.708 14.8C27.6893 14.8 28.4307 15.04 28.932 15.52C29.444 16 29.7 16.6987 29.7 17.616C29.7 18.096 29.5827 18.5333 29.348 18.928C29.124 19.312 28.788 19.616 28.34 19.84C27.9027 20.064 27.3533 20.1813 26.692 20.192L26.724 19.6C27.076 19.6 27.4547 19.648 27.86 19.744C28.276 19.84 28.6653 20.0053 29.028 20.24C29.3907 20.4747 29.6893 20.7947 29.924 21.2C30.1587 21.5947 30.276 22.0907 30.276 22.688C30.276 23.3387 30.1693 23.8827 29.956 24.32C29.7427 24.7467 29.46 25.0827 29.108 25.328C28.756 25.5733 28.3667 25.7493 27.94 25.856C27.524 25.952 27.1133 26 26.708 26H22.612C22.388 26 22.196 25.9253 22.036 25.776C21.876 25.616 21.796 25.4187 21.796 25.184V15.616C21.796 15.3813 21.876 15.1893 22.036 15.04C22.196 14.88 22.388 14.8 22.612 14.8H26.708ZM26.484 16.368H23.332L23.524 16.112V19.552L23.348 19.376H26.516C26.9 19.3653 27.236 19.2373 27.524 18.992C27.8227 18.736 27.972 18.3627 27.972 17.872C27.972 17.3707 27.8387 16.9973 27.572 16.752C27.3053 16.496 26.9427 16.368 26.484 16.368ZM26.596 20.944H23.412L23.524 20.832V24.608L23.396 24.464H26.692C27.2467 24.464 27.6947 24.32 28.036 24.032C28.3773 23.7333 28.548 23.2853 28.548 22.688C28.548 22.1867 28.4467 21.8133 28.244 21.568C28.0413 21.3227 27.7907 21.1573 27.492 21.072C27.1933 20.9867 26.8947 20.944 26.596 20.944Z" fill="black"/>
</svg>
