<svg width="40" height="40" viewBox="0 0 40 40" fill="none" xmlns="http://www.w3.org/2000/svg">
<circle cx="20" cy="20" r="19.5" fill="white" stroke="#EC5237"/>
<path d="M12.16 14.8C12.3733 14.8 12.56 14.88 12.72 15.04C12.8907 15.1893 12.976 15.3813 12.976 15.616V25.184C12.9653 25.4187 12.8747 25.616 12.704 25.776C12.544 25.9253 12.352 26 12.128 26C11.8827 26 11.68 25.9253 11.52 25.776C11.3707 25.616 11.296 25.4187 11.296 25.184V15.616C11.296 15.3813 11.376 15.1893 11.536 15.04C11.696 14.88 11.904 14.8 12.16 14.8ZM19.376 14.8C19.632 14.8 19.8347 14.88 19.984 15.04C20.1333 15.1893 20.208 15.3813 20.208 15.616V25.184C20.208 25.4187 20.128 25.616 19.968 25.776C19.8187 25.9253 19.616 26 19.36 26C19.136 26 18.944 25.9253 18.784 25.776C18.624 25.616 18.544 25.4187 18.544 25.184V15.616C18.544 15.3813 18.624 15.1893 18.784 15.04C18.9547 14.88 19.152 14.8 19.376 14.8ZM12.096 19.568H19.392L19.376 21.104H12.08L12.096 19.568ZM26.236 26.16C25.468 26.16 24.7853 26.0533 24.188 25.84C23.5907 25.6267 23.02 25.2747 22.476 24.784C22.3587 24.6987 22.268 24.5973 22.204 24.48C22.1507 24.352 22.124 24.224 22.124 24.096C22.124 23.8933 22.1987 23.712 22.348 23.552C22.4973 23.392 22.684 23.312 22.908 23.312C23.0787 23.312 23.2387 23.3707 23.388 23.488C23.7933 23.8613 24.2147 24.144 24.652 24.336C25.1 24.528 25.6227 24.624 26.22 24.624C26.6467 24.624 27.036 24.5547 27.388 24.416C27.7507 24.2773 28.0387 24.0907 28.252 23.856C28.4653 23.6213 28.572 23.3493 28.572 23.04C28.572 22.656 28.46 22.3413 28.236 22.096C28.0227 21.84 27.708 21.632 27.292 21.472C26.8867 21.3013 26.396 21.1573 25.82 21.04C25.2867 20.944 24.8067 20.8107 24.38 20.64C23.964 20.4693 23.6067 20.256 23.308 20C23.0093 19.7333 22.78 19.4187 22.62 19.056C22.46 18.6933 22.38 18.272 22.38 17.792C22.38 17.1413 22.5507 16.5813 22.892 16.112C23.2333 15.6427 23.6973 15.28 24.284 15.024C24.8707 14.768 25.532 14.64 26.268 14.64C26.94 14.64 27.5693 14.7467 28.156 14.96C28.7427 15.1627 29.2173 15.44 29.58 15.792C29.836 16.016 29.964 16.256 29.964 16.512C29.964 16.704 29.884 16.8853 29.724 17.056C29.5747 17.216 29.3987 17.296 29.196 17.296C29.0467 17.296 28.9187 17.2533 28.812 17.168C28.6413 16.9867 28.412 16.8267 28.124 16.688C27.836 16.5387 27.5267 16.416 27.196 16.32C26.876 16.224 26.5667 16.176 26.268 16.176C25.788 16.176 25.3773 16.2453 25.036 16.384C24.6947 16.512 24.4333 16.6933 24.252 16.928C24.0707 17.152 23.98 17.4187 23.98 17.728C23.98 18.0907 24.0813 18.3893 24.284 18.624C24.4973 18.8587 24.7907 19.0507 25.164 19.2C25.5373 19.3387 25.964 19.4667 26.444 19.584C27.0307 19.712 27.5533 19.856 28.012 20.016C28.4813 20.176 28.876 20.384 29.196 20.64C29.516 20.8853 29.7613 21.1947 29.932 21.568C30.1027 21.9413 30.188 22.4053 30.188 22.96C30.188 23.6 30.0067 24.16 29.644 24.64C29.2813 25.12 28.8013 25.4933 28.204 25.76C27.6173 26.0267 26.9613 26.16 26.236 26.16Z" fill="black"/>
</svg>
