<svg width="14" height="14" viewBox="0 0 14 14" fill="none" xmlns="http://www.w3.org/2000/svg">
<path d="M1.18991 7.21861C1.15868 6.25856 1.3647 5.30562 1.78972 4.44421C2.21474 3.58281 2.84564 2.83951 3.62654 2.28017C4.40744 1.72083 5.31424 1.3627 6.2666 1.23752C7.21896 1.11234 8.1875 1.22396 9.08642 1.5625C9.98534 1.90104 10.7869 2.45605 11.4201 3.17836C12.0533 3.90068 12.4986 4.768 12.7165 5.70351C12.9344 6.63902 12.9183 7.61383 12.6695 8.54161C12.4207 9.46938 11.9469 10.3215 11.2901 11.0224" stroke="#FCFCFC"/>
<path d="M12.8685 7.02701C12.8685 7.94172 12.6537 8.84363 12.2413 9.66012C11.829 10.4766 11.2306 11.1848 10.4945 11.7278C9.75836 12.2707 8.90499 12.6332 8.00314 12.7859C7.10129 12.9387 6.17616 12.8776 5.30226 12.6074C4.42837 12.3372 3.63015 11.8656 2.97188 11.2305C2.31362 10.5954 1.81372 9.81452 1.51244 8.95085C1.21117 8.08719 1.11694 7.16484 1.23736 6.2581C1.35777 5.35136 1.68945 4.48557 2.20569 3.73047" stroke="url(#paint0_linear_2753_579)"/>
<defs>
<linearGradient id="paint0_linear_2753_579" x1="-28" y1="8" x2="7.02751" y2="12.868" gradientUnits="userSpaceOnUse">
<stop offset="0.885417" stop-color="#EC5237"/>
<stop offset="1" stop-color="#EC5237" stop-opacity="0"/>
</linearGradient>
</defs>
</svg>
