<svg width="20" height="20" viewBox="0 0 20 20" fill="none" xmlns="http://www.w3.org/2000/svg">
<path fill-rule="evenodd" clip-rule="evenodd" d="M9.42268 1.66602C11.461 1.66602 13.1193 3.32435 13.1193 5.36268V6.13935C13.1193 6.48435 12.8393 6.76435 12.4943 6.76435C12.1493 6.76435 11.8693 6.48435 11.8693 6.13935V5.36268C11.8693 4.01268 10.7718 2.91602 9.42268 2.91602H5.36018C4.01268 2.91602 2.91602 4.01268 2.91602 5.36268V14.6368C2.91602 15.986 4.01268 17.0827 5.36018 17.0827H9.43185C10.7752 17.0827 11.8693 15.9893 11.8693 14.646V13.8602C11.8693 13.5152 12.1493 13.2352 12.4943 13.2352C12.8393 13.2352 13.1193 13.5152 13.1193 13.8602V14.646C13.1193 16.6793 11.4643 18.3327 9.43185 18.3327H5.36018C3.32352 18.3327 1.66602 16.6752 1.66602 14.6368V5.36268C1.66602 3.32435 3.32352 1.66602 5.36018 1.66602H9.42268ZM16.1561 7.12768L18.5961 9.55685C18.6179 9.57845 18.6374 9.60091 18.6552 9.62468L18.5961 9.55685C18.6256 9.58596 18.6519 9.61776 18.6747 9.65169C18.6847 9.66705 18.6944 9.68295 18.7033 9.69928C18.7106 9.71204 18.7173 9.72536 18.7235 9.7389C18.7288 9.75086 18.7338 9.76284 18.7385 9.77499C18.7448 9.79083 18.7503 9.80711 18.7551 9.82361C18.7587 9.8366 18.7621 9.84956 18.765 9.86268C18.7687 9.8786 18.7717 9.89461 18.774 9.91075C18.7753 9.92124 18.7766 9.93224 18.7775 9.94331C18.7794 9.96232 18.7803 9.9808 18.7803 9.99935L18.776 10.051L18.7743 10.0841C18.7741 10.0855 18.7739 10.0869 18.7737 10.0884L18.7803 9.99935C18.7803 10.0456 18.7751 10.0914 18.7652 10.1359C18.7621 10.1491 18.7587 10.1621 18.755 10.1749C18.7503 10.1916 18.7448 10.2079 18.7386 10.2239C18.7338 10.2359 18.7288 10.2478 18.7234 10.2596C18.7173 10.2733 18.7106 10.2867 18.7034 10.2997C18.6944 10.3158 18.6847 10.3316 18.6744 10.347C18.6685 10.3562 18.6621 10.3652 18.6554 10.3741C18.6356 10.4002 18.614 10.4247 18.5906 10.4475L16.1561 12.8718C16.0344 12.9935 15.8744 13.0543 15.7153 13.0543C15.5553 13.0543 15.3944 12.9935 15.2728 12.8702C15.0294 12.6252 15.0303 12.2302 15.2744 11.9868L16.641 10.6243H8.12085C7.77585 10.6243 7.49585 10.3443 7.49585 9.99935C7.49585 9.65435 7.77585 9.37435 8.12085 9.37435H16.6427L15.2744 8.01268C15.0303 7.76935 15.0286 7.37435 15.2728 7.12935C15.5161 6.88435 15.9111 6.88435 16.1561 7.12768Z" fill="black"/>
</svg>
