<svg width="18" height="18" viewBox="0 0 18 18" fill="none" xmlns="http://www.w3.org/2000/svg">
<path fill-rule="evenodd" clip-rule="evenodd" d="M8.42268 0.666016C10.461 0.666016 12.1193 2.32435 12.1193 4.36268V5.13935C12.1193 5.48435 11.8393 5.76435 11.4943 5.76435C11.1493 5.76435 10.8693 5.48435 10.8693 5.13935V4.36268C10.8693 3.01268 9.77185 1.91602 8.42268 1.91602H4.36018C3.01268 1.91602 1.91602 3.01268 1.91602 4.36268V13.6368C1.91602 14.986 3.01268 16.0827 4.36018 16.0827H8.43185C9.77518 16.0827 10.8693 14.9893 10.8693 13.646V12.8602C10.8693 12.5152 11.1493 12.2352 11.4943 12.2352C11.8393 12.2352 12.1193 12.5152 12.1193 12.8602V13.646C12.1193 15.6793 10.4643 17.3327 8.43185 17.3327H4.36018C2.32352 17.3327 0.666016 15.6752 0.666016 13.6368V4.36268C0.666016 2.32435 2.32352 0.666016 4.36018 0.666016H8.42268ZM15.1561 6.12768L17.5961 8.55685C17.6179 8.57845 17.6374 8.60091 17.6552 8.62468L17.5961 8.55685C17.6256 8.58596 17.6519 8.61776 17.6747 8.65169C17.6847 8.66705 17.6944 8.68295 17.7033 8.69928C17.7106 8.71204 17.7173 8.72536 17.7235 8.7389C17.7288 8.75086 17.7338 8.76284 17.7385 8.77499C17.7448 8.79083 17.7503 8.80711 17.7551 8.82361C17.7587 8.8366 17.7621 8.84956 17.765 8.86268C17.7687 8.8786 17.7717 8.89461 17.774 8.91075C17.7753 8.92124 17.7766 8.93224 17.7775 8.94331C17.7794 8.96232 17.7803 8.9808 17.7803 8.99935L17.776 9.05102L17.7743 9.08412C17.7741 9.08553 17.7739 9.08695 17.7737 9.08836L17.7803 8.99935C17.7803 9.04561 17.7751 9.09141 17.7652 9.13595C17.7621 9.14913 17.7587 9.1621 17.755 9.17489C17.7503 9.19159 17.7448 9.20787 17.7386 9.22389C17.7338 9.23586 17.7288 9.24783 17.7234 9.25961C17.7173 9.27334 17.7106 9.28666 17.7034 9.29973C17.6944 9.31575 17.6847 9.33164 17.6744 9.34705C17.6685 9.35619 17.6621 9.36521 17.6554 9.37406C17.6356 9.40016 17.614 9.42472 17.5906 9.44746L15.1561 11.8718C15.0344 11.9935 14.8744 12.0543 14.7153 12.0543C14.5553 12.0543 14.3944 11.9935 14.2728 11.8702C14.0294 11.6252 14.0303 11.2302 14.2744 10.9868L15.641 9.62435H7.12085C6.77585 9.62435 6.49585 9.34435 6.49585 8.99935C6.49585 8.65435 6.77585 8.37435 7.12085 8.37435H15.6427L14.2744 7.01268C14.0303 6.76935 14.0286 6.37435 14.2728 6.12935C14.5161 5.88435 14.9111 5.88435 15.1561 6.12768Z" fill="black"/>
</svg>
