<svg width="20" height="20" viewBox="0 0 20 20" fill="none" xmlns="http://www.w3.org/2000/svg">
<path fill-rule="evenodd" clip-rule="evenodd" d="M13.8832 1.66602C16.6582 1.66602 18.7507 3.93018 18.7507 6.93268V12.656C18.7507 14.1927 18.2073 15.581 17.2198 16.566C16.334 17.4485 15.1848 17.916 13.8965 17.916H5.68565C4.39982 17.916 3.25148 17.4493 2.36482 16.566C1.37732 15.581 0.833984 14.1927 0.833984 12.656V6.93268C0.833984 3.93018 2.92648 1.66602 5.70148 1.66602H13.8832ZM13.8832 2.91602H5.70148C3.60565 2.91602 2.08398 4.60518 2.08398 6.93268V12.656C2.08398 13.8585 2.49732 14.9327 3.24732 15.6802C3.89398 16.326 4.73815 16.666 5.68815 16.666H13.8832C13.8848 16.6643 13.8915 16.666 13.8965 16.666C14.8473 16.666 15.6907 16.326 16.3373 15.6802C17.0882 14.9327 17.5007 13.8585 17.5007 12.656V6.93268C17.5007 4.60518 15.979 2.91602 13.8832 2.91602ZM15.1965 6.77335C15.414 7.04085 15.3732 7.43418 15.1057 7.65252L11.4023 10.6625C10.934 11.0342 10.374 11.22 9.81482 11.22C9.25732 11.22 8.70149 11.0358 8.23649 10.6675L4.49898 7.65418C4.22982 7.43752 4.18815 7.04335 4.40398 6.77502C4.62148 6.50752 5.01482 6.46502 5.28315 6.68085L9.01732 9.69085C9.48648 10.0625 10.1473 10.0625 10.6198 9.68752L14.3165 6.68252C14.5848 6.46335 14.9782 6.50502 15.1965 6.77335Z" fill="#EC5237"/>
</svg>
