<svg width="19" height="17" viewBox="0 0 19 17" fill="none" xmlns="http://www.w3.org/2000/svg">
<path fill-rule="evenodd" clip-rule="evenodd" d="M13.8832 0.666016C16.6582 0.666016 18.7507 2.93018 18.7507 5.93268V11.656C18.7507 13.1927 18.2073 14.581 17.2198 15.566C16.334 16.4485 15.1848 16.916 13.8965 16.916H5.68565C4.39982 16.916 3.25148 16.4493 2.36482 15.566C1.37732 14.581 0.833984 13.1927 0.833984 11.656V5.93268C0.833984 2.93018 2.92648 0.666016 5.70148 0.666016H13.8832ZM13.8832 1.91602H5.70148C3.60565 1.91602 2.08398 3.60518 2.08398 5.93268V11.656C2.08398 12.8585 2.49732 13.9327 3.24732 14.6802C3.89398 15.326 4.73815 15.666 5.68815 15.666H13.8832C13.8848 15.6643 13.8915 15.666 13.8965 15.666C14.8473 15.666 15.6907 15.326 16.3373 14.6802C17.0882 13.9327 17.5007 12.8585 17.5007 11.656V5.93268C17.5007 3.60518 15.979 1.91602 13.8832 1.91602ZM15.1965 5.77335C15.414 6.04085 15.3732 6.43418 15.1057 6.65252L11.4023 9.66252C10.934 10.0342 10.374 10.22 9.81482 10.22C9.25732 10.22 8.70149 10.0358 8.23649 9.66751L4.49898 6.65418C4.22982 6.43752 4.18815 6.04335 4.40398 5.77502C4.62148 5.50752 5.01482 5.46502 5.28315 5.68085L9.01732 8.69085C9.48648 9.06252 10.1473 9.06252 10.6198 8.68752L14.3165 5.68252C14.5848 5.46335 14.9782 5.50502 15.1965 5.77335Z" fill="black"/>
</svg>
