<svg width="18" height="21" viewBox="0 0 18 21" fill="none" xmlns="http://www.w3.org/2000/svg">
<path fill-rule="evenodd" clip-rule="evenodd" d="M7.74317 18.0795C8.13167 18.5123 8.63042 18.75 9.14792 18.75H9.14867C9.66842 18.75 10.1694 18.5122 10.5587 18.0787C10.7672 17.8485 11.1227 17.8297 11.3529 18.0375C11.5839 18.2452 11.6027 18.6015 11.3949 18.8317C10.7889 19.5045 9.99167 19.875 9.14867 19.875H9.14717C8.30642 19.8743 7.51067 19.5037 6.90692 18.831C6.69917 18.6007 6.71792 18.2445 6.94892 18.0375C7.17992 17.829 7.53542 17.8478 7.74317 18.0795ZM9.18527 3.75C12.519 3.75 14.7585 6.3465 14.7585 8.77125C14.7585 10.0185 15.0758 10.5472 15.4125 11.1082C15.7455 11.6617 16.1228 12.2902 16.1228 13.4782C15.861 16.5135 12.6923 16.761 9.18527 16.761C5.67827 16.761 2.50877 16.5135 2.25001 13.5262C2.24777 12.2902 2.62502 11.6617 2.95802 11.1082L3.07558 10.9104C3.36503 10.4129 3.61202 9.87176 3.61202 8.77125C3.61202 6.3465 5.85152 3.75 9.18527 3.75ZM9.18527 4.875C6.56402 4.875 4.73702 6.9285 4.73702 8.77125C4.73702 10.3305 4.30427 11.0512 3.92177 11.6873C3.61502 12.198 3.37277 12.6015 3.37277 13.4782C3.49802 14.8927 4.43177 15.636 9.18527 15.636C13.9125 15.636 14.8755 14.8597 15 13.4295C14.9978 12.6015 14.7555 12.198 14.4488 11.6873C14.0663 11.0512 13.6335 10.3305 13.6335 8.77125C13.6335 6.9285 11.8065 4.875 9.18527 4.875Z" fill="#B1B1B1"/>
<circle cx="5" cy="3" r="3" fill="#EC5237"/>
</svg>
