<svg width="20" height="20" viewBox="0 0 20 20" fill="none" xmlns="http://www.w3.org/2000/svg">
<path fill-rule="evenodd" clip-rule="evenodd" d="M13.611 1.66602C16.4352 1.66602 18.3327 3.64768 18.3327 6.59602V13.4027C18.3327 16.351 16.4352 18.3327 13.6102 18.3327H6.38685C3.56268 18.3327 1.66602 16.351 1.66602 13.4027V6.59602C1.66602 3.64768 3.56268 1.66602 6.38685 1.66602H13.611ZM13.611 2.91602H6.38685C4.27852 2.91602 2.91602 4.36018 2.91602 6.59602V13.4027C2.91602 15.6385 4.27852 17.0827 6.38685 17.0827H13.6102C15.7193 17.0827 17.0827 15.6385 17.0827 13.4027V6.59602C17.0827 4.36018 15.7193 2.91602 13.611 2.91602ZM8.44143 7.55152L9.99768 9.10768L11.5531 7.55327C11.7973 7.3091 12.1923 7.3091 12.4364 7.55327C12.6806 7.79743 12.6806 8.19243 12.4364 8.4366L10.881 9.99102L12.4381 11.549C12.6823 11.7932 12.6823 12.1882 12.4381 12.4323C12.3164 12.5548 12.1556 12.6157 11.9964 12.6157C11.8364 12.6157 11.6764 12.5548 11.5548 12.4323L9.99768 10.8743L8.4431 12.4299C8.32143 12.5524 8.16143 12.6133 8.00143 12.6133C7.84143 12.6133 7.68143 12.5524 7.55977 12.4299C7.3156 12.1858 7.3156 11.7908 7.55977 11.5466L9.11435 9.99102L7.5581 8.43485C7.31393 8.19068 7.31393 7.79568 7.5581 7.55152C7.8031 7.30735 8.1981 7.30735 8.44143 7.55152Z" fill="black"/>
</svg>
