<svg width="22" height="22" viewBox="0 0 22 22" fill="none" xmlns="http://www.w3.org/2000/svg">
<path fill-rule="evenodd" clip-rule="evenodd" d="M12.8115 1.83398C12.8509 1.83398 12.8895 1.8373 12.9271 1.84366L13.0525 1.84443C13.2395 1.84443 13.4183 1.92052 13.5485 2.05527L18.1914 6.89252C18.3142 7.01993 18.3831 7.19135 18.3831 7.36827V15.7704C18.3995 18.0704 16.6083 19.9495 14.3047 20.043L6.95395 20.0439H6.85404C4.60826 19.9932 2.8071 18.1769 2.75223 15.953L2.75195 5.95018C2.80512 3.67593 4.68337 1.84443 6.94112 1.84443L12.696 1.84366C12.7336 1.8373 12.7722 1.83398 12.8115 1.83398ZM12.124 3.21907L6.94295 3.21943C5.42404 3.21943 4.1627 4.4496 4.12695 5.96668V15.7704C4.09304 17.3407 5.33054 18.6341 6.8852 18.6689H14.2772C15.8071 18.6057 17.019 17.3343 17.008 15.7759L17.008 8.23507L15.1655 8.23598C13.488 8.2314 12.124 6.86373 12.124 5.18807L12.124 3.21907ZM12.6403 13.3914C13.0198 13.3914 13.3278 13.6994 13.3278 14.0789C13.3278 14.4584 13.0198 14.7664 12.6403 14.7664H7.69031C7.31081 14.7664 7.00281 14.4584 7.00281 14.0789C7.00281 13.6994 7.31081 13.3914 7.69031 13.3914H12.6403ZM10.7658 9.95208C11.1453 9.95208 11.4533 10.2601 11.4533 10.6396C11.4533 11.0191 11.1453 11.3271 10.7658 11.3271H7.68949C7.30999 11.3271 7.00199 11.0191 7.00199 10.6396C7.00199 10.2601 7.30999 9.95208 7.68949 9.95208H10.7658ZM13.499 3.98998L13.499 5.18807C13.499 6.1084 14.248 6.85823 15.1674 6.86098L16.2545 6.86007L13.499 3.98998Z" fill="#EC5237"/>
</svg>
