<svg width="464" height="390" viewBox="0 0 464 390" fill="none" xmlns="http://www.w3.org/2000/svg">
<path d="M78.5527 154V187.109" stroke="#EEEEEE" stroke-width="5.23432" stroke-miterlimit="10" stroke-linecap="round"/>
<path d="M95.1089 170.553H62" stroke="#EEEEEE" stroke-width="5.23432" stroke-miterlimit="10" stroke-linecap="round"/>
<path d="M130.83 154V187.109" stroke="#EEEEEE" stroke-width="5.23432" stroke-miterlimit="10" stroke-linecap="round"/>
<path d="M147.386 170.553H114.277" stroke="#EEEEEE" stroke-width="5.23432" stroke-miterlimit="10" stroke-linecap="round"/>
<path d="M183.107 154V187.109" stroke="#EEEEEE" stroke-width="5.23432" stroke-miterlimit="10" stroke-linecap="round"/>
<path d="M199.664 170.553H166.555" stroke="#EEEEEE" stroke-width="5.23432" stroke-miterlimit="10" stroke-linecap="round"/>
<path d="M235.385 154V187.109" stroke="#EEEEEE" stroke-width="5.23432" stroke-miterlimit="10" stroke-linecap="round"/>
<path d="M251.941 170.553H218.832" stroke="#EEEEEE" stroke-width="5.23432" stroke-miterlimit="10" stroke-linecap="round"/>
<path d="M287.66 154V187.109" stroke="#EEEEEE" stroke-width="5.23432" stroke-miterlimit="10" stroke-linecap="round"/>
<path d="M304.216 170.553H271.107" stroke="#EEEEEE" stroke-width="5.23432" stroke-miterlimit="10" stroke-linecap="round"/>
<path d="M339.939 154V187.109" stroke="#EEEEEE" stroke-width="5.23432" stroke-miterlimit="10" stroke-linecap="round"/>
<path d="M356.494 170.553H323.385" stroke="#EEEEEE" stroke-width="5.23432" stroke-miterlimit="10" stroke-linecap="round"/>
<path d="M392.219 154V187.109" stroke="#EEEEEE" stroke-width="5.23432" stroke-miterlimit="10" stroke-linecap="round"/>
<path d="M408.775 170.553H375.666" stroke="#EEEEEE" stroke-width="5.23432" stroke-miterlimit="10" stroke-linecap="round"/>
<path d="M444.494 154V187.109" stroke="#EEEEEE" stroke-width="5.23432" stroke-miterlimit="10" stroke-linecap="round"/>
<path d="M461.05 170.553H427.941" stroke="#EEEEEE" stroke-width="5.23432" stroke-miterlimit="10" stroke-linecap="round"/>
<path d="M78.5527 201.115V234.224" stroke="#EEEEEE" stroke-width="5.23432" stroke-miterlimit="10" stroke-linecap="round"/>
<path d="M95.1089 217.668H62" stroke="#EEEEEE" stroke-width="5.23432" stroke-miterlimit="10" stroke-linecap="round"/>
<path d="M130.83 201.115V234.224" stroke="#EEEEEE" stroke-width="5.23432" stroke-miterlimit="10" stroke-linecap="round"/>
<path d="M147.386 217.668H114.277" stroke="#EEEEEE" stroke-width="5.23432" stroke-miterlimit="10" stroke-linecap="round"/>
<path d="M183.107 201.115V234.224" stroke="#EEEEEE" stroke-width="5.23432" stroke-miterlimit="10" stroke-linecap="round"/>
<path d="M199.664 217.668H166.555" stroke="#EEEEEE" stroke-width="5.23432" stroke-miterlimit="10" stroke-linecap="round"/>
<path d="M235.385 201.115V234.224" stroke="#EEEEEE" stroke-width="5.23432" stroke-miterlimit="10" stroke-linecap="round"/>
<path d="M251.941 217.668H218.832" stroke="#EEEEEE" stroke-width="5.23432" stroke-miterlimit="10" stroke-linecap="round"/>
<path d="M287.66 201.115V234.224" stroke="#EEEEEE" stroke-width="5.23432" stroke-miterlimit="10" stroke-linecap="round"/>
<path d="M304.216 217.668H271.107" stroke="#EEEEEE" stroke-width="5.23432" stroke-miterlimit="10" stroke-linecap="round"/>
<path d="M339.938 201.115V234.224" stroke="#EEEEEE" stroke-width="5.23432" stroke-miterlimit="10" stroke-linecap="round"/>
<path d="M356.494 217.668H323.385" stroke="#EEEEEE" stroke-width="5.23432" stroke-miterlimit="10" stroke-linecap="round"/>
<path d="M392.219 201.115V234.224" stroke="#EEEEEE" stroke-width="5.23432" stroke-miterlimit="10" stroke-linecap="round"/>
<path d="M408.775 217.668H375.666" stroke="#EEEEEE" stroke-width="5.23432" stroke-miterlimit="10" stroke-linecap="round"/>
<path d="M444.494 201.115V234.224" stroke="#EEEEEE" stroke-width="5.23432" stroke-miterlimit="10" stroke-linecap="round"/>
<path d="M461.05 217.668H427.941" stroke="#EEEEEE" stroke-width="5.23432" stroke-miterlimit="10" stroke-linecap="round"/>
<path d="M78.5527 248.301V281.343" stroke="#EEEEEE" stroke-width="5.23432" stroke-miterlimit="10" stroke-linecap="round"/>
<path d="M95.1089 264.854H62" stroke="#EEEEEE" stroke-width="5.23432" stroke-miterlimit="10" stroke-linecap="round"/>
<path d="M130.83 248.301V281.343" stroke="#EEEEEE" stroke-width="5.23432" stroke-miterlimit="10" stroke-linecap="round"/>
<path d="M147.386 264.854H114.277" stroke="#EEEEEE" stroke-width="5.23432" stroke-miterlimit="10" stroke-linecap="round"/>
<path d="M183.107 248.301V281.343" stroke="#EEEEEE" stroke-width="5.23432" stroke-miterlimit="10" stroke-linecap="round"/>
<path d="M199.664 264.854H166.555" stroke="#EEEEEE" stroke-width="5.23432" stroke-miterlimit="10" stroke-linecap="round"/>
<path d="M235.385 248.301V281.343" stroke="#EEEEEE" stroke-width="5.23432" stroke-miterlimit="10" stroke-linecap="round"/>
<path d="M251.941 264.854H218.832" stroke="#EEEEEE" stroke-width="5.23432" stroke-miterlimit="10" stroke-linecap="round"/>
<path d="M287.66 248.301V281.343" stroke="#EEEEEE" stroke-width="5.23432" stroke-miterlimit="10" stroke-linecap="round"/>
<path d="M304.216 264.854H271.107" stroke="#EEEEEE" stroke-width="5.23432" stroke-miterlimit="10" stroke-linecap="round"/>
<path d="M339.938 248.301V281.343" stroke="#EEEEEE" stroke-width="5.23432" stroke-miterlimit="10" stroke-linecap="round"/>
<path d="M356.494 264.854H323.385" stroke="#EEEEEE" stroke-width="5.23432" stroke-miterlimit="10" stroke-linecap="round"/>
<path d="M392.219 248.301V281.343" stroke="#EEEEEE" stroke-width="5.23432" stroke-miterlimit="10" stroke-linecap="round"/>
<path d="M408.775 264.854H375.666" stroke="#EEEEEE" stroke-width="5.23432" stroke-miterlimit="10" stroke-linecap="round"/>
<path d="M444.494 248.301V281.343" stroke="#EEEEEE" stroke-width="5.23432" stroke-miterlimit="10" stroke-linecap="round"/>
<path d="M461.05 264.854H427.941" stroke="#EEEEEE" stroke-width="5.23432" stroke-miterlimit="10" stroke-linecap="round"/>
<path d="M78.5527 295.418V328.527" stroke="#EEEEEE" stroke-width="5.23432" stroke-miterlimit="10" stroke-linecap="round"/>
<path d="M95.1089 311.971H62" stroke="#EEEEEE" stroke-width="5.23432" stroke-miterlimit="10" stroke-linecap="round"/>
<path d="M130.83 295.418V328.527" stroke="#EEEEEE" stroke-width="5.23432" stroke-miterlimit="10" stroke-linecap="round"/>
<path d="M147.386 311.971H114.277" stroke="#EEEEEE" stroke-width="5.23432" stroke-miterlimit="10" stroke-linecap="round"/>
<path d="M183.107 295.418V328.527" stroke="#EEEEEE" stroke-width="5.23432" stroke-miterlimit="10" stroke-linecap="round"/>
<path d="M199.664 311.971H166.555" stroke="#EEEEEE" stroke-width="5.23432" stroke-miterlimit="10" stroke-linecap="round"/>
<path d="M235.385 295.418V328.527" stroke="#EEEEEE" stroke-width="5.23432" stroke-miterlimit="10" stroke-linecap="round"/>
<path d="M251.941 311.971H218.832" stroke="#EEEEEE" stroke-width="5.23432" stroke-miterlimit="10" stroke-linecap="round"/>
<path d="M287.66 295.418V328.527" stroke="#EEEEEE" stroke-width="5.23432" stroke-miterlimit="10" stroke-linecap="round"/>
<path d="M304.216 311.971H271.107" stroke="#EEEEEE" stroke-width="5.23432" stroke-miterlimit="10" stroke-linecap="round"/>
<path d="M339.938 295.418V328.527" stroke="#EEEEEE" stroke-width="5.23432" stroke-miterlimit="10" stroke-linecap="round"/>
<path d="M356.494 311.971H323.385" stroke="#EEEEEE" stroke-width="5.23432" stroke-miterlimit="10" stroke-linecap="round"/>
<path d="M392.219 295.418V328.527" stroke="#EEEEEE" stroke-width="5.23432" stroke-miterlimit="10" stroke-linecap="round"/>
<path d="M408.775 311.971H375.666" stroke="#EEEEEE" stroke-width="5.23432" stroke-miterlimit="10" stroke-linecap="round"/>
<path d="M444.494 295.418V328.527" stroke="#EEEEEE" stroke-width="5.23432" stroke-miterlimit="10" stroke-linecap="round"/>
<path d="M461.05 311.971H427.941" stroke="#EEEEEE" stroke-width="5.23432" stroke-miterlimit="10" stroke-linecap="round"/>
<path d="M78.5527 342.598V375.639" stroke="#EEEEEE" stroke-width="5.23432" stroke-miterlimit="10" stroke-linecap="round"/>
<path d="M95.1089 359.15H62" stroke="#EEEEEE" stroke-width="5.23432" stroke-miterlimit="10" stroke-linecap="round"/>
<path d="M130.83 342.598V375.639" stroke="#EEEEEE" stroke-width="5.23432" stroke-miterlimit="10" stroke-linecap="round"/>
<path d="M147.386 359.15H114.277" stroke="#EEEEEE" stroke-width="5.23432" stroke-miterlimit="10" stroke-linecap="round"/>
<path d="M183.107 342.598V375.639" stroke="#EEEEEE" stroke-width="5.23432" stroke-miterlimit="10" stroke-linecap="round"/>
<path d="M199.664 359.15H166.555" stroke="#EEEEEE" stroke-width="5.23432" stroke-miterlimit="10" stroke-linecap="round"/>
<path d="M235.385 342.598V375.639" stroke="#EEEEEE" stroke-width="5.23432" stroke-miterlimit="10" stroke-linecap="round"/>
<path d="M251.941 359.15H218.832" stroke="#EEEEEE" stroke-width="5.23432" stroke-miterlimit="10" stroke-linecap="round"/>
<path d="M287.66 342.598V375.639" stroke="#EEEEEE" stroke-width="5.23432" stroke-miterlimit="10" stroke-linecap="round"/>
<path d="M304.216 359.15H271.107" stroke="#EEEEEE" stroke-width="5.23432" stroke-miterlimit="10" stroke-linecap="round"/>
<path d="M339.938 342.598V375.639" stroke="#EEEEEE" stroke-width="5.23432" stroke-miterlimit="10" stroke-linecap="round"/>
<path d="M356.494 359.15H323.385" stroke="#EEEEEE" stroke-width="5.23432" stroke-miterlimit="10" stroke-linecap="round"/>
<path d="M392.219 342.598V375.639" stroke="#EEEEEE" stroke-width="5.23432" stroke-miterlimit="10" stroke-linecap="round"/>
<path d="M408.775 359.15H375.666" stroke="#EEEEEE" stroke-width="5.23432" stroke-miterlimit="10" stroke-linecap="round"/>
<path d="M444.494 342.598V375.639" stroke="#EEEEEE" stroke-width="5.23432" stroke-miterlimit="10" stroke-linecap="round"/>
<path d="M461.05 359.15H427.941" stroke="#EEEEEE" stroke-width="5.23432" stroke-miterlimit="10" stroke-linecap="round"/>
<path d="M265.414 179.761C296.665 179.761 322 154.427 322 123.176C322 91.9241 296.665 66.5898 265.414 66.5898C234.162 66.5898 208.828 91.9241 208.828 123.176C208.828 154.427 234.162 179.761 265.414 179.761Z" fill="#FFEDEA"/>
<path d="M243.352 106.781H156.891C132.071 106.781 112 86.6597 112 61.8906C112 37.0706 132.122 17 156.891 17H243.352C268.173 17 288.243 37.1216 288.243 61.8906C288.243 86.7107 268.173 106.781 243.352 106.781Z" stroke="#5A5A5A" stroke-width="32.6849" stroke-miterlimit="10"/>
<path d="M73.127 389.802L94.9741 227L225.037 327.382L73.127 389.802Z" fill="#FFEDEA"/>
<path d="M111.598 311.268L13 358.847" stroke="#5A5A5A" stroke-width="25.4776" stroke-miterlimit="10" stroke-linecap="round"/>
</svg>
