<svg width="20" height="20" viewBox="0 0 20 20" fill="none" xmlns="http://www.w3.org/2000/svg">
<path fill-rule="evenodd" clip-rule="evenodd" d="M9.78185 1.66602C14.2568 1.66602 17.8969 5.30602 17.8969 9.78102C17.8969 11.8923 17.0866 13.8179 15.7607 15.2631L18.3697 17.8666C18.6139 18.1108 18.6147 18.5058 18.3705 18.7499C18.2488 18.8733 18.088 18.9341 17.928 18.9341C17.7689 18.9341 17.6088 18.8733 17.4863 18.7516L14.8459 16.1185C13.4569 17.2309 11.6957 17.8968 9.78185 17.8968C5.30685 17.8968 1.66602 14.256 1.66602 9.78102C1.66602 5.30602 5.30685 1.66602 9.78185 1.66602ZM9.78185 2.91602C5.99602 2.91602 2.91602 5.99518 2.91602 9.78102C2.91602 13.5668 5.99602 16.6468 9.78185 16.6468C13.5668 16.6468 16.6469 13.5668 16.6469 9.78102C16.6469 5.99518 13.5668 2.91602 9.78185 2.91602Z" fill="#A5A5A5"/>
</svg>
