<svg width="16" height="17" viewBox="0 0 16 17" fill="none" xmlns="http://www.w3.org/2000/svg">
<path fill-rule="evenodd" clip-rule="evenodd" d="M2.63498 9.09917L1.29383 14.7501C1.23491 14.9976 1.38399 15.1432 1.45175 15.1944C1.51952 15.2457 1.69924 15.3524 1.92492 15.2304L13.7206 8.82399C13.9287 8.71027 13.9516 8.51405 13.9516 8.43626C13.9528 8.35966 13.9281 8.16874 13.7277 8.05678L1.95321 1.61622C1.72988 1.49424 1.54721 1.60148 1.47945 1.65275C1.4105 1.70519 1.25789 1.8531 1.31445 2.10176L2.6391 7.84936L8.92057 7.81637C9.26528 7.8146 9.54695 8.09273 9.5493 8.43803C9.55166 8.78333 9.27235 9.065 8.92764 9.06677L2.63498 9.09917ZM0.518373 16.0359C0.108251 15.6258 -0.0590983 15.0412 0.0776089 14.4614L1.50007 8.46985L0.097052 2.38225C-0.0537976 1.72582 0.18544 1.06467 0.72402 0.656908C1.26201 0.248554 1.96264 0.197288 2.55248 0.519611L14.327 6.96018C14.8685 7.25657 15.2014 7.82167 15.2026 8.43803C15.2009 9.05734 14.862 9.62597 14.3164 9.92178L2.52125 16.3276C1.92846 16.6505 1.22784 16.5969 0.692791 16.1879C0.63033 16.1396 0.572584 16.0901 0.518373 16.0359Z" fill="#EC5237"/>
</svg>
