<svg width="20" height="20" viewBox="0 0 20 20" fill="none" xmlns="http://www.w3.org/2000/svg">
<path fill-rule="evenodd" clip-rule="evenodd" d="M10.2221 1.66797C10.8188 1.66797 11.3988 1.91297 11.8146 2.3388C12.2296 2.76714 12.4588 3.35464 12.4413 3.95047C12.4429 4.08464 12.4871 4.23964 12.5671 4.37547C12.6996 4.60047 12.9088 4.7588 13.1571 4.8238C13.4054 4.88547 13.6654 4.85214 13.8863 4.7213C14.9529 4.11214 16.3104 4.47714 16.9196 5.53547L17.4388 6.43464C17.4521 6.4588 17.4638 6.48214 17.4738 6.5063C18.0254 7.5488 17.6571 8.8613 16.6321 9.46047C16.4829 9.5463 16.3621 9.6663 16.2788 9.8113C16.1496 10.0355 16.1138 10.3021 16.1788 10.5471C16.2454 10.7971 16.4046 11.0046 16.6288 11.133C17.1346 11.4238 17.5121 11.9138 17.6629 12.4796C17.8138 13.0446 17.7313 13.658 17.4371 14.1638L16.8838 15.0855C16.2746 16.1321 14.9171 16.4946 13.8613 15.8846C13.7204 15.8038 13.5579 15.7596 13.3963 15.7555H13.3913C13.1504 15.7555 12.9029 15.858 12.7229 16.0371C12.5404 16.2196 12.4404 16.463 12.4421 16.7213C12.4363 17.9455 11.4404 18.9355 10.2221 18.9355H9.17795C7.95378 18.9355 6.95795 17.9405 6.95795 16.7163C6.95628 16.5655 6.91295 16.4088 6.83212 16.273C6.70128 16.0446 6.48962 15.8813 6.24545 15.8163C6.00295 15.7513 5.73712 15.7871 5.51878 15.9138C4.99545 16.2055 4.37962 16.2763 3.81628 16.118C3.25378 15.9588 2.76795 15.5721 2.48295 15.0596L1.96212 14.1621C1.35295 13.1055 1.71545 11.7513 2.77045 11.1413C3.06962 10.9688 3.25545 10.6471 3.25545 10.3021C3.25545 9.95714 3.06962 9.63464 2.77045 9.46214C1.71462 8.8488 1.35295 7.4913 1.96128 6.43464L2.52628 5.50714C3.12712 4.46214 4.48545 4.0938 5.54462 4.70214C5.68878 4.78797 5.84545 4.8313 6.00462 4.83297C6.52378 4.83297 6.95795 4.40464 6.96628 3.87797C6.96295 3.29714 7.19212 2.73964 7.60962 2.3188C8.02878 1.8988 8.58545 1.66797 9.17795 1.66797H10.2221ZM10.2221 2.91797H9.17795C8.91962 2.91797 8.67795 3.0188 8.49545 3.20047C8.31378 3.38297 8.21462 3.62547 8.21628 3.8838C8.19878 5.10214 7.20295 6.08297 5.99712 6.08297C5.61045 6.0788 5.23795 5.97464 4.91462 5.7813C4.46045 5.52297 3.86712 5.68214 3.60128 6.14464L3.03712 7.07213C2.77878 7.52047 2.93712 8.11297 3.39712 8.38047C4.07962 8.77547 4.50545 9.51214 4.50545 10.3021C4.50545 11.0921 4.07962 11.828 3.39545 12.2238C2.93795 12.4888 2.77962 13.078 3.04462 13.5363L3.57045 14.443C3.70045 14.6771 3.91295 14.8463 4.15878 14.9155C4.40378 14.9838 4.67378 14.9546 4.89878 14.8296C5.22962 14.6355 5.61462 14.5346 6.00128 14.5346C6.19212 14.5346 6.38295 14.5588 6.56962 14.6088C7.13295 14.7605 7.62212 15.1371 7.91212 15.643C8.10045 15.9605 8.20462 16.3313 8.20795 16.7096C8.20795 17.2513 8.64295 17.6855 9.17795 17.6855H10.2221C10.7546 17.6855 11.1896 17.2538 11.1921 16.7213C11.1888 16.133 11.4188 15.5738 11.8396 15.153C12.2546 14.738 12.8346 14.4888 13.4146 14.5055C13.7946 14.5146 14.1604 14.6171 14.483 14.8005C14.9471 15.0663 15.5396 14.908 15.8079 14.4496L16.3613 13.5271C16.4846 13.3146 16.5205 13.048 16.4546 12.8021C16.3896 12.5563 16.2263 12.343 16.0063 12.2171C15.4913 11.9205 15.1238 11.4421 14.9713 10.8688C14.8204 10.3063 14.9029 9.69214 15.1971 9.1863C15.3888 8.85297 15.6696 8.57214 16.0063 8.3788C16.458 8.11464 16.6163 7.5238 16.3538 7.0638C16.3429 7.04547 16.333 7.0263 16.3246 7.0063L15.8363 6.15964C15.5704 5.69714 14.9788 5.53797 14.5146 5.80214C14.0129 6.0988 13.4163 6.1838 12.8429 6.03297C12.2704 5.88464 11.7905 5.52214 11.4913 5.01047C11.2996 4.69047 11.1954 4.31797 11.1921 3.9388C11.1996 3.6538 11.0996 3.39797 10.9179 3.21047C10.7371 3.0238 10.483 2.91797 10.2221 2.91797ZM9.7037 7.47972C11.2595 7.47972 12.5254 8.74639 12.5254 10.3022C12.5254 11.8581 11.2595 13.1231 9.7037 13.1231C8.14787 13.1231 6.88203 11.8581 6.88203 10.3022C6.88203 8.74639 8.14787 7.47972 9.7037 7.47972ZM9.7037 8.72972C8.83703 8.72972 8.13203 9.43555 8.13203 10.3022C8.13203 11.1689 8.83703 11.8731 9.7037 11.8731C10.5704 11.8731 11.2754 11.1689 11.2754 10.3022C11.2754 9.43555 10.5704 8.72972 9.7037 8.72972Z" fill="black"/>
</svg>
