<svg width="21" height="18" viewBox="0 0 21 18" fill="none" xmlns="http://www.w3.org/2000/svg">
<path d="M21 9.34325C21 9.81787 20.6473 10.2101 20.1897 10.2722L20.0625 10.2807L3.5825 10.28L9.53623 16.2094C9.90314 16.5747 9.90442 17.1683 9.53909 17.5352C9.20697 17.8688 8.68621 17.9002 8.31861 17.6286L8.21327 17.5381L0.650766 10.0081C0.602404 9.95993 0.560396 9.90781 0.524744 9.85278C0.514673 9.83621 0.504423 9.81926 0.494705 9.80197C0.485767 9.78715 0.47769 9.77176 0.47007 9.75621C0.459486 9.73357 0.449144 9.71018 0.439756 9.68632C0.432129 9.66792 0.425758 9.65003 0.419949 9.63199C0.413042 9.60962 0.40633 9.58579 0.400558 9.56159C0.396267 9.54469 0.392868 9.52843 0.389904 9.51211C0.385735 9.48782 0.382185 9.46268 0.379654 9.43725C0.377468 9.41785 0.376152 9.39863 0.375423 9.37939C0.375237 9.36773 0.375 9.35552 0.375 9.34325L0.375469 9.30693C0.376188 9.28853 0.377445 9.27015 0.379242 9.25181L0.375 9.34325C0.375 9.28409 0.38048 9.22621 0.390961 9.17009C0.393391 9.15668 0.396286 9.14292 0.399492 9.12922C0.406153 9.101 0.413849 9.07382 0.42271 9.04718C0.427059 9.03394 0.432127 9.0198 0.437542 9.00576C0.448498 8.97755 0.460405 8.95066 0.473505 8.92446C0.479591 8.91215 0.486406 8.89925 0.493544 8.88649C0.50526 8.86567 0.517328 8.84588 0.53009 8.82659C0.539095 8.81294 0.549067 8.79873 0.559479 8.78475L0.567593 8.77394C0.59285 8.74094 0.620251 8.70967 0.649586 8.68034L0.650711 8.67947L8.21321 1.14822C8.58008 0.782859 9.17368 0.784088 9.53903 1.15096C9.87118 1.48448 9.90036 2.00537 9.62728 2.37182L9.53629 2.47678L3.585 8.405L20.0625 8.40575C20.5803 8.40575 21 8.82548 21 9.34325Z" fill="black"/>
</svg>
