<svg width="23" height="23" viewBox="0 0 23 23" fill="none" xmlns="http://www.w3.org/2000/svg">
<circle cx="11.5" cy="11.5" r="10.5" stroke="#EC5237" stroke-width="2"/>
<path fill-rule="evenodd" clip-rule="evenodd" d="M17.226 16.1296C17.226 18.3269 14.2127 18.5809 11.9467 18.5809L11.7845 18.5808C10.3408 18.5773 6.66602 18.4861 6.66602 16.1163C6.66602 13.9638 9.55825 13.6761 11.807 13.6652L12.1088 13.6651C13.5524 13.6686 17.226 13.7597 17.226 16.1296ZM11.9467 14.6649C9.10602 14.6649 7.66602 15.1529 7.66602 16.1163C7.66602 17.0883 9.10602 17.5809 11.9467 17.5809C14.7867 17.5809 16.226 17.0929 16.226 16.1296C16.226 15.1576 14.7867 14.6649 11.9467 14.6649ZM11.9467 5.33398C13.8987 5.33398 15.486 6.92198 15.486 8.87398C15.486 10.826 13.8987 12.4133 11.9467 12.4133H11.9253C9.97735 12.4073 8.39935 10.8187 8.40599 8.87198C8.40599 6.92198 9.99402 5.33398 11.9467 5.33398ZM11.9467 6.28598C10.5193 6.28598 9.358 7.44665 9.358 8.87398C9.35335 10.2967 10.506 11.4567 11.9273 11.462L11.9467 11.938V11.462C13.3733 11.462 14.534 10.3007 14.534 8.87398C14.534 7.44665 13.3733 6.28598 11.9467 6.28598Z" fill="#858585"/>
</svg>
